<svg width="25" height="21" viewBox="0 0 25 21" fill="none" xmlns="http://www.w3.org/2000/svg">
<path d="M20.3725 19.0086C21.2895 19.0086 22.033 18.4039 22.033 17.658C22.033 16.912 21.2895 16.3073 20.3725 16.3073C19.4554 16.3073 18.712 16.912 18.712 17.658C18.712 18.4039 19.4554 19.0086 20.3725 19.0086Z" stroke="#FFF8E3" stroke-width="2" stroke-linecap="round" stroke-linejoin="round"/>
<path d="M9.30247 19.0086C10.2195 19.0086 10.963 18.4039 10.963 17.658C10.963 16.912 10.2195 16.3073 9.30247 16.3073C8.3854 16.3073 7.64197 16.912 7.64197 17.658C7.64197 18.4039 8.3854 19.0086 9.30247 19.0086Z" stroke="#FFF8E3" stroke-width="2" stroke-linecap="round" stroke-linejoin="round"/>
<path d="M4.321 2.80086H23.14L20.926 12.7056H6.535L4.321 2.80086ZM4.321 2.80086C4.1365 2.20057 3.214 1 1 1" stroke="#FFF8E3" stroke-width="2" stroke-linecap="round" stroke-linejoin="round"/>
<path d="M20.926 12.7056H6.53503H4.57649C2.60126 12.7056 1.55353 13.409 1.55353 14.5064C1.55353 15.6039 2.60126 16.3073 4.57649 16.3073H20.3725" stroke="#FFF8E3" stroke-width="2" stroke-linecap="round" stroke-linejoin="round"/>
</svg>
